<mxfile host="app.diagrams.net" agent="Mozilla/5.0 (Windows NT 10.0; Win64; x64) AppleWebKit/537.36 (KHTML, like Gecko) Chrome/134.0.0.0 Safari/537.36 Edg/134.0.0.0" version="26.1.1">
  <diagram name="Page-1" id="7QIUD_KlZYvnsU7UCkg_">
    <mxGraphModel dx="1123" dy="601" grid="1" gridSize="10" guides="1" tooltips="1" connect="1" arrows="1" fold="1" page="1" pageScale="1" pageWidth="850" pageHeight="1100" math="0" shadow="0">
      <root>
        <mxCell id="0" />
        <mxCell id="1" parent="0" />
        <mxCell id="aPcENGiXM3eM0Bm7vRF7-38" value="" style="group" vertex="1" connectable="0" parent="1">
          <mxGeometry x="55" y="170" width="595" height="560" as="geometry" />
        </mxCell>
        <mxCell id="aPcENGiXM3eM0Bm7vRF7-31" style="edgeStyle=elbowEdgeStyle;rounded=0;orthogonalLoop=1;jettySize=auto;html=1;elbow=vertical;flowAnimation=1;" edge="1" parent="aPcENGiXM3eM0Bm7vRF7-38" source="aPcENGiXM3eM0Bm7vRF7-1" target="aPcENGiXM3eM0Bm7vRF7-6">
          <mxGeometry relative="1" as="geometry">
            <Array as="points">
              <mxPoint x="225" y="390" />
            </Array>
          </mxGeometry>
        </mxCell>
        <mxCell id="aPcENGiXM3eM0Bm7vRF7-1" value="" style="sketch=0;points=[[0,0,0],[0.25,0,0],[0.5,0,0],[0.75,0,0],[1,0,0],[0,1,0],[0.25,1,0],[0.5,1,0],[0.75,1,0],[1,1,0],[0,0.25,0],[0,0.5,0],[0,0.75,0],[1,0.25,0],[1,0.5,0],[1,0.75,0]];outlineConnect=0;fontColor=#232F3E;fillColor=#ED7100;strokeColor=#ffffff;dashed=0;verticalLabelPosition=bottom;verticalAlign=top;align=center;html=1;fontSize=12;fontStyle=0;aspect=fixed;shape=mxgraph.aws4.resourceIcon;resIcon=mxgraph.aws4.ec2;" vertex="1" parent="aPcENGiXM3eM0Bm7vRF7-38">
          <mxGeometry x="169.79" y="420" width="48" height="48" as="geometry" />
        </mxCell>
        <mxCell id="aPcENGiXM3eM0Bm7vRF7-35" style="edgeStyle=elbowEdgeStyle;rounded=0;orthogonalLoop=1;jettySize=auto;html=1;flowAnimation=1;elbow=vertical;" edge="1" parent="aPcENGiXM3eM0Bm7vRF7-38" source="aPcENGiXM3eM0Bm7vRF7-2" target="aPcENGiXM3eM0Bm7vRF7-6">
          <mxGeometry relative="1" as="geometry">
            <Array as="points">
              <mxPoint x="345" y="390" />
            </Array>
          </mxGeometry>
        </mxCell>
        <mxCell id="aPcENGiXM3eM0Bm7vRF7-2" value="" style="sketch=0;points=[[0,0,0],[0.25,0,0],[0.5,0,0],[0.75,0,0],[1,0,0],[0,1,0],[0.25,1,0],[0.5,1,0],[0.75,1,0],[1,1,0],[0,0.25,0],[0,0.5,0],[0,0.75,0],[1,0.25,0],[1,0.5,0],[1,0.75,0]];outlineConnect=0;fontColor=#232F3E;fillColor=#ED7100;strokeColor=#ffffff;dashed=0;verticalLabelPosition=bottom;verticalAlign=top;align=center;html=1;fontSize=12;fontStyle=0;aspect=fixed;shape=mxgraph.aws4.resourceIcon;resIcon=mxgraph.aws4.ec2;" vertex="1" parent="aPcENGiXM3eM0Bm7vRF7-38">
          <mxGeometry x="429.79" y="420" width="48" height="48" as="geometry" />
        </mxCell>
        <mxCell id="aPcENGiXM3eM0Bm7vRF7-3" value="" style="points=[];aspect=fixed;html=1;align=center;shadow=0;dashed=0;fillColor=#FF6A00;strokeColor=none;shape=mxgraph.alibaba_cloud.bastionhost;" vertex="1" parent="aPcENGiXM3eM0Bm7vRF7-38">
          <mxGeometry x="422.88" y="160" width="50.4" height="39.900000000000006" as="geometry" />
        </mxCell>
        <mxCell id="aPcENGiXM3eM0Bm7vRF7-16" style="edgeStyle=entityRelationEdgeStyle;rounded=0;orthogonalLoop=1;jettySize=auto;html=1;flowAnimation=1;" edge="1" parent="aPcENGiXM3eM0Bm7vRF7-38" source="aPcENGiXM3eM0Bm7vRF7-4" target="aPcENGiXM3eM0Bm7vRF7-2">
          <mxGeometry relative="1" as="geometry" />
        </mxCell>
        <mxCell id="aPcENGiXM3eM0Bm7vRF7-4" value="" style="outlineConnect=0;dashed=0;verticalLabelPosition=bottom;verticalAlign=top;align=center;html=1;shape=mxgraph.aws3.application_load_balancer;fillColor=#F58536;gradientColor=none;" vertex="1" parent="aPcENGiXM3eM0Bm7vRF7-38">
          <mxGeometry x="418.37" y="260" width="59.42" height="62" as="geometry" />
        </mxCell>
        <mxCell id="aPcENGiXM3eM0Bm7vRF7-5" value="" style="outlineConnect=0;dashed=0;verticalLabelPosition=bottom;verticalAlign=top;align=center;html=1;shape=mxgraph.aws3.application_load_balancer;fillColor=#F58536;gradientColor=none;" vertex="1" parent="aPcENGiXM3eM0Bm7vRF7-38">
          <mxGeometry x="137.18" y="260" width="59.42" height="62" as="geometry" />
        </mxCell>
        <mxCell id="aPcENGiXM3eM0Bm7vRF7-36" style="edgeStyle=orthogonalEdgeStyle;rounded=0;orthogonalLoop=1;jettySize=auto;html=1;flowAnimation=1;endArrow=cross;endFill=0;" edge="1" parent="aPcENGiXM3eM0Bm7vRF7-38" source="aPcENGiXM3eM0Bm7vRF7-6" target="aPcENGiXM3eM0Bm7vRF7-7">
          <mxGeometry relative="1" as="geometry" />
        </mxCell>
        <mxCell id="aPcENGiXM3eM0Bm7vRF7-6" value="" style="sketch=0;outlineConnect=0;fontColor=#232F3E;gradientColor=none;fillColor=#8C4FFF;strokeColor=none;dashed=0;verticalLabelPosition=bottom;verticalAlign=top;align=center;html=1;fontSize=12;fontStyle=0;aspect=fixed;pointerEvents=1;shape=mxgraph.aws4.nat_gateway;" vertex="1" parent="aPcENGiXM3eM0Bm7vRF7-38">
          <mxGeometry x="202.39" y="267" width="48" height="48" as="geometry" />
        </mxCell>
        <mxCell id="aPcENGiXM3eM0Bm7vRF7-9" value="&#xa;AZ-2" style="swimlane;startSize=0;fillColor=default;swimlaneFillColor=none;strokeWidth=2;dashed=1;dashPattern=8 8;rounded=1;perimeterSpacing=2;glass=0;shadow=1;" vertex="1" parent="aPcENGiXM3eM0Bm7vRF7-38">
          <mxGeometry x="368.08" y="90" width="176.92" height="430" as="geometry" />
        </mxCell>
        <mxCell id="aPcENGiXM3eM0Bm7vRF7-13" value="" style="swimlane;startSize=0;fillColor=default;swimlaneFillColor=none;strokeWidth=2;dashed=1;dashPattern=8 8;rounded=1;perimeterSpacing=2;glass=0;shadow=1;" vertex="1" parent="aPcENGiXM3eM0Bm7vRF7-38">
          <mxGeometry x="85" y="90" width="188.79" height="430" as="geometry" />
        </mxCell>
        <mxCell id="aPcENGiXM3eM0Bm7vRF7-14" value="" style="swimlane;startSize=0;fillColor=default;swimlaneFillColor=none;strokeWidth=1;rounded=1;perimeterSpacing=1;glass=0;shadow=1;" vertex="1" parent="aPcENGiXM3eM0Bm7vRF7-38">
          <mxGeometry x="25" y="50" width="570" height="510" as="geometry" />
        </mxCell>
        <mxCell id="aPcENGiXM3eM0Bm7vRF7-23" value="" style="swimlane;startSize=0;fillColor=default;swimlaneFillColor=none;strokeWidth=2;dashed=1;rounded=1;perimeterSpacing=2;glass=0;shadow=1;strokeColor=#FF6523;" vertex="1" parent="aPcENGiXM3eM0Bm7vRF7-14">
          <mxGeometry x="75" y="320" width="158.79" height="130" as="geometry" />
        </mxCell>
        <mxCell id="aPcENGiXM3eM0Bm7vRF7-25" value="Private-Subnet-2" style="text;html=1;align=center;verticalAlign=middle;resizable=0;points=[];autosize=1;strokeColor=none;fillColor=none;" vertex="1" parent="aPcENGiXM3eM0Bm7vRF7-14">
          <mxGeometry x="385" y="298" width="110" height="30" as="geometry" />
        </mxCell>
        <mxCell id="aPcENGiXM3eM0Bm7vRF7-26" value="" style="swimlane;startSize=0;fillColor=default;swimlaneFillColor=none;strokeWidth=2;dashed=1;rounded=1;perimeterSpacing=2;glass=0;shadow=1;strokeColor=#FF6523;" vertex="1" parent="aPcENGiXM3eM0Bm7vRF7-14">
          <mxGeometry x="360" y="320" width="150" height="140" as="geometry" />
        </mxCell>
        <mxCell id="aPcENGiXM3eM0Bm7vRF7-27" value="" style="swimlane;startSize=0;fillColor=default;swimlaneFillColor=none;strokeWidth=2;dashed=1;rounded=1;perimeterSpacing=2;glass=0;shadow=1;strokeColor=#66FF66;" vertex="1" parent="aPcENGiXM3eM0Bm7vRF7-14">
          <mxGeometry x="103.79000000000002" y="88" width="130" height="210" as="geometry" />
        </mxCell>
        <mxCell id="aPcENGiXM3eM0Bm7vRF7-28" value="&lt;font style=&quot;font-size: 10px;&quot;&gt;Public Subnet-1&lt;/font&gt;" style="text;html=1;align=center;verticalAlign=middle;resizable=0;points=[];autosize=1;strokeColor=none;fillColor=none;" vertex="1" parent="aPcENGiXM3eM0Bm7vRF7-27">
          <mxGeometry x="25" y="-10" width="90" height="30" as="geometry" />
        </mxCell>
        <mxCell id="aPcENGiXM3eM0Bm7vRF7-29" value="" style="swimlane;startSize=0;fillColor=default;swimlaneFillColor=none;strokeWidth=2;dashed=1;rounded=1;perimeterSpacing=2;glass=0;shadow=1;strokeColor=#66FF66;" vertex="1" parent="aPcENGiXM3eM0Bm7vRF7-14">
          <mxGeometry x="370" y="90" width="140" height="210" as="geometry" />
        </mxCell>
        <mxCell id="aPcENGiXM3eM0Bm7vRF7-30" value="&lt;font style=&quot;font-size: 10px;&quot;&gt;Public Subnet-2&lt;/font&gt;" style="text;html=1;align=center;verticalAlign=middle;resizable=0;points=[];autosize=1;strokeColor=none;fillColor=none;" vertex="1" parent="aPcENGiXM3eM0Bm7vRF7-29">
          <mxGeometry x="25" y="-10" width="90" height="30" as="geometry" />
        </mxCell>
        <mxCell id="aPcENGiXM3eM0Bm7vRF7-33" style="edgeStyle=orthogonalEdgeStyle;rounded=0;orthogonalLoop=1;jettySize=auto;html=1;curved=1;flowAnimation=1;" edge="1" parent="aPcENGiXM3eM0Bm7vRF7-38" source="aPcENGiXM3eM0Bm7vRF7-7" target="aPcENGiXM3eM0Bm7vRF7-5">
          <mxGeometry relative="1" as="geometry">
            <Array as="points">
              <mxPoint x="298" y="160" />
              <mxPoint x="167" y="160" />
            </Array>
          </mxGeometry>
        </mxCell>
        <mxCell id="aPcENGiXM3eM0Bm7vRF7-34" style="edgeStyle=orthogonalEdgeStyle;rounded=0;orthogonalLoop=1;jettySize=auto;html=1;curved=1;flowAnimation=1;" edge="1" parent="aPcENGiXM3eM0Bm7vRF7-38" source="aPcENGiXM3eM0Bm7vRF7-7" target="aPcENGiXM3eM0Bm7vRF7-4">
          <mxGeometry relative="1" as="geometry">
            <Array as="points">
              <mxPoint x="298" y="200" />
              <mxPoint x="448" y="200" />
            </Array>
          </mxGeometry>
        </mxCell>
        <mxCell id="aPcENGiXM3eM0Bm7vRF7-7" value="" style="sketch=0;outlineConnect=0;fontColor=#232F3E;gradientColor=none;fillColor=#8C4FFF;strokeColor=none;dashed=0;verticalLabelPosition=bottom;verticalAlign=top;align=center;html=1;fontSize=12;fontStyle=0;aspect=fixed;pointerEvents=1;shape=mxgraph.aws4.internet_gateway;" vertex="1" parent="aPcENGiXM3eM0Bm7vRF7-38">
          <mxGeometry x="265" width="65" height="65" as="geometry" />
        </mxCell>
        <mxCell id="aPcENGiXM3eM0Bm7vRF7-17" style="edgeStyle=orthogonalEdgeStyle;rounded=0;orthogonalLoop=1;jettySize=auto;html=1;exitX=0;exitY=0.5;exitDx=0;exitDy=0;exitPerimeter=0;entryX=0;entryY=0.75;entryDx=0;entryDy=0;entryPerimeter=0;flowAnimation=1;" edge="1" parent="aPcENGiXM3eM0Bm7vRF7-38" source="aPcENGiXM3eM0Bm7vRF7-5" target="aPcENGiXM3eM0Bm7vRF7-1">
          <mxGeometry relative="1" as="geometry" />
        </mxCell>
        <mxCell id="aPcENGiXM3eM0Bm7vRF7-18" style="edgeStyle=orthogonalEdgeStyle;rounded=0;orthogonalLoop=1;jettySize=auto;html=1;entryX=0;entryY=0.75;entryDx=0;entryDy=0;entryPerimeter=0;curved=1;flowAnimation=1;" edge="1" parent="aPcENGiXM3eM0Bm7vRF7-38" source="aPcENGiXM3eM0Bm7vRF7-3" target="aPcENGiXM3eM0Bm7vRF7-2">
          <mxGeometry relative="1" as="geometry">
            <Array as="points">
              <mxPoint x="405" y="180" />
              <mxPoint x="405" y="456" />
            </Array>
          </mxGeometry>
        </mxCell>
        <mxCell id="aPcENGiXM3eM0Bm7vRF7-19" value="SSH" style="edgeLabel;html=1;align=center;verticalAlign=middle;resizable=0;points=[];" vertex="1" connectable="0" parent="aPcENGiXM3eM0Bm7vRF7-18">
          <mxGeometry x="-0.677" y="-5" relative="1" as="geometry">
            <mxPoint as="offset" />
          </mxGeometry>
        </mxCell>
        <mxCell id="aPcENGiXM3eM0Bm7vRF7-20" value="&lt;div&gt;&lt;br&gt;&lt;/div&gt;&lt;div&gt;&lt;span style=&quot;background-color: transparent; color: light-dark(rgb(0, 0, 0), rgb(255, 255, 255));&quot;&gt;AZ-1&lt;/span&gt;&lt;/div&gt;" style="text;html=1;align=center;verticalAlign=middle;resizable=0;points=[];autosize=1;strokeColor=none;fillColor=none;" vertex="1" parent="aPcENGiXM3eM0Bm7vRF7-38">
          <mxGeometry x="120" y="73" width="50" height="40" as="geometry" />
        </mxCell>
        <mxCell id="aPcENGiXM3eM0Bm7vRF7-21" style="edgeStyle=entityRelationEdgeStyle;rounded=0;orthogonalLoop=1;jettySize=auto;html=1;entryX=1;entryY=0.25;entryDx=0;entryDy=0;entryPerimeter=0;flowAnimation=1;" edge="1" parent="aPcENGiXM3eM0Bm7vRF7-38" source="aPcENGiXM3eM0Bm7vRF7-3" target="aPcENGiXM3eM0Bm7vRF7-1">
          <mxGeometry relative="1" as="geometry" />
        </mxCell>
        <mxCell id="aPcENGiXM3eM0Bm7vRF7-22" value="SSH" style="edgeLabel;html=1;align=center;verticalAlign=middle;resizable=0;points=[];" vertex="1" connectable="0" parent="aPcENGiXM3eM0Bm7vRF7-21">
          <mxGeometry x="0.1171" y="5" relative="1" as="geometry">
            <mxPoint as="offset" />
          </mxGeometry>
        </mxCell>
        <mxCell id="aPcENGiXM3eM0Bm7vRF7-24" value="Private-Subnet-1" style="text;html=1;align=center;verticalAlign=middle;resizable=0;points=[];autosize=1;strokeColor=none;fillColor=none;" vertex="1" parent="aPcENGiXM3eM0Bm7vRF7-38">
          <mxGeometry x="140" y="348" width="110" height="30" as="geometry" />
        </mxCell>
        <mxCell id="aPcENGiXM3eM0Bm7vRF7-37" value="&lt;div&gt;&lt;br&gt;&lt;/div&gt;&amp;nbsp; &amp;nbsp; &amp;nbsp; &amp;nbsp; &amp;nbsp; &amp;nbsp; &amp;nbsp; VPC" style="text;html=1;align=center;verticalAlign=middle;resizable=0;points=[];autosize=1;strokeColor=none;fillColor=none;" vertex="1" parent="aPcENGiXM3eM0Bm7vRF7-38">
          <mxGeometry y="33" width="90" height="40" as="geometry" />
        </mxCell>
      </root>
    </mxGraphModel>
  </diagram>
</mxfile>
